<?xml version="1.0" standalone="no"?>
<!DOCTYPE svg PUBLIC "-//W3C//DTD SVG 20010904//EN"
 "http://www.w3.org/TR/2001/REC-SVG-20010904/DTD/svg10.dtd">
<svg version="1.0" xmlns="http://www.w3.org/2000/svg"
 width="1080.000000pt" height="1080.000000pt" viewBox="0 0 1080.000000 1080.000000"
 preserveAspectRatio="xMidYMid meet">
<metadata>
Created by potrace 1.14, written by Peter Selinger 2001-2017
</metadata>
<g transform="translate(0.000000,1080.000000) scale(0.100000,-0.100000)"
fill="#000000" stroke="none">
<path d="M10425 10505 c-86 -25 -226 -111 -323 -199 -38 -33 -49 -44 -215
-199 -60 -56 -121 -112 -134 -125 -38 -35 -71 -54 -82 -48 -15 10 -47 -30 -66
-82 -41 -107 -55 -130 -88 -138 -18 -4 -35 -9 -39 -10 -5 -1 -17 -2 -27 -3
-11 0 -27 -8 -36 -17 -14 -14 -18 -15 -39 0 -39 25 -76 27 -123 6 -73 -32
-100 -101 -69 -175 8 -19 13 -35 11 -35 -2 0 3 -12 10 -27 13 -24 13 -30 0
-42 -12 -12 -21 -9 -63 22 -75 53 -107 67 -157 67 -91 0 -162 -57 -169 -136
-3 -41 1 -40 -65 -30 -24 4 -114 -15 -142 -29 -35 -19 -62 -62 -62 -101 l0
-32 -40 18 c-44 20 -86 19 -137 -4 -65 -29 -92 -65 -96 -126 -1 -19 -3 -40 -3
-47 -1 -6 -14 -14 -31 -18 -35 -8 -82 -43 -74 -56 3 -5 -3 -12 -13 -15 -18 -6
-89 -34 -153 -61 -19 -8 -48 -21 -63 -29 -16 -8 -35 -14 -42 -14 -7 0 -15 -3
-17 -7 -1 -5 -23 -18 -48 -31 -60 -30 -179 -148 -180 -178 0 -6 -7 -18 -17
-25 -9 -8 -22 -29 -30 -48 -19 -44 -27 -33 -29 37 -2 60 -11 148 -19 185 -2
12 -6 36 -9 52 -2 17 -6 46 -10 65 -3 19 -8 51 -11 70 -12 74 -18 82 -60 76
l-32 -5 -48 117 c-56 136 -89 199 -159 302 -72 107 -270 300 -409 398 l-116
83 13 37 c24 68 1 122 -73 177 -75 55 -164 77 -280 70 -52 -3 -125 -10 -161
-16 -37 -5 -80 -12 -96 -14 -16 -2 -29 -4 -29 -5 0 -1 -11 -3 -25 -4 -36 -4
-101 -15 -130 -21 -14 -3 -41 -8 -60 -11 -19 -3 -51 -9 -70 -14 -19 -5 -49
-11 -65 -14 -76 -13 -316 -80 -437 -122 -260 -90 -536 -244 -721 -402 -44 -37
-157 -151 -187 -188 -53 -64 -155 -224 -144 -224 4 0 2 -6 -4 -13 -27 -32 -76
-200 -87 -297 -7 -63 -7 -215 0 -266 17 -117 21 -142 47 -244 50 -200 157
-427 385 -812 76 -128 147 -253 157 -278 11 -25 32 -64 47 -87 23 -34 25 -43
12 -47 -35 -14 -53 -3 -109 65 -33 39 -70 84 -84 99 -30 34 -40 45 -160 190
-52 63 -99 120 -105 126 -5 6 -30 35 -55 64 -25 29 -52 60 -60 70 -8 10 -33
39 -55 66 -71 85 -241 287 -260 308 -10 11 -148 176 -175 210 -8 10 -21 25
-29 33 -7 7 -29 33 -48 56 -304 365 -413 481 -529 557 -105 69 -165 85 -310
85 l-121 0 -89 -44 c-49 -24 -90 -48 -92 -53 -2 -4 -8 -8 -13 -8 -17 0 -89
-72 -123 -124 -30 -47 -82 -166 -71 -166 2 0 -2 -18 -10 -40 -8 -22 -14 -41
-13 -43 1 -3 -14 -108 -19 -132 -8 -41 -10 -283 -2 -350 12 -103 18 -147 24
-175 3 -14 8 -38 10 -55 3 -16 8 -38 11 -47 5 -16 10 -39 20 -86 15 -71 43
-183 49 -193 7 -10 33 -9 145 6 40 5 106 18 112 21 4 3 -4 35 -17 73 -27 76
-33 102 -40 181 -5 51 -3 48 20 -36 34 -124 69 -219 81 -217 5 0 26 4 47 7 20
3 54 9 74 12 60 10 82 21 78 41 -2 10 -20 68 -40 128 -34 104 -60 206 -71 285
-3 19 -7 47 -10 62 -18 93 -20 266 -5 350 18 95 80 158 161 164 32 2 43 -7
160 -124 69 -70 150 -156 180 -191 30 -35 71 -83 90 -105 19 -23 38 -43 41
-46 3 -3 32 -36 64 -75 32 -38 61 -72 64 -75 3 -3 28 -32 56 -65 27 -33 52
-62 55 -65 3 -3 55 -63 115 -135 60 -71 112 -132 115 -135 3 -3 43 -50 90
-105 47 -55 87 -102 90 -105 3 -3 28 -32 55 -65 51 -61 92 -109 110 -129 6 -6
43 -51 84 -101 41 -49 82 -96 90 -104 10 -8 12 -15 5 -17 -38 -15 -179 -118
-230 -169 -65 -65 -135 -161 -164 -228 -85 -191 -35 -479 122 -713 15 -23 28
-47 30 -54 2 -7 -74 -50 -181 -103 -102 -51 -188 -99 -192 -107 -4 -8 -21 -50
-37 -94 -27 -75 -28 -81 -14 -130 14 -52 31 -120 37 -146 11 -52 19 -71 31
-78 11 -6 12 -19 5 -62 -6 -30 -13 -73 -16 -95 -19 -131 -32 -195 -35 -170 -7
80 -47 296 -72 390 -5 22 -11 47 -13 55 -2 8 -10 46 -19 83 -16 68 -16 69 8
110 23 39 29 61 40 157 2 19 11 49 20 65 47 88 -21 333 -190 680 -32 66 -73
143 -90 171 -59 93 -146 154 -221 154 l-22 0 19 43 c34 77 21 116 -118 329
-219 338 -264 378 -442 383 -103 4 -221 -16 -349 -57 -53 -17 -107 -32 -121
-33 -14 -2 -45 -5 -70 -8 -25 -3 -76 -9 -115 -12 -38 -4 -81 -8 -95 -10 -47
-6 -115 -17 -135 -22 -11 -2 -29 -5 -40 -7 -11 -2 -29 -6 -40 -9 -11 -3 -32
-8 -46 -11 -28 -4 -194 -55 -279 -84 -90 -31 -277 -111 -398 -168 -62 -30
-117 -54 -122 -54 -4 0 -10 -4 -12 -8 -2 -4 -30 -23 -63 -41 -213 -120 -404
-316 -497 -511 -37 -79 -78 -227 -92 -335 -3 -22 -8 -60 -12 -85 -9 -71 -7
-237 5 -331 18 -140 54 -261 157 -531 30 -79 34 -101 37 -215 4 -99 9 -141 26
-183 53 -140 170 -270 273 -306 37 -12 53 -25 78 -64 38 -59 100 -117 176
-166 86 -55 240 -124 305 -138 67 -13 73 -18 87 -66 6 -19 27 -87 47 -150 36
-116 42 -137 52 -177 4 -15 -9 -44 -41 -92 -49 -73 -130 -236 -142 -285 -8
-32 -12 -34 -409 -211 -401 -178 -565 -267 -747 -404 l-48 -35 0 -1313 0
-1313 2419 0 2420 0 -5 28 c-3 15 -10 45 -16 67 -5 22 -12 49 -14 60 -2 11 -6
31 -9 45 -9 44 -15 74 -25 135 -5 33 -12 71 -15 85 -3 14 -7 39 -10 55 -6 47
-15 105 -25 165 -5 30 -12 78 -15 105 -3 28 -8 57 -10 65 -2 8 -6 40 -10 70
-3 30 -7 66 -10 80 -6 38 -24 180 -29 230 -3 25 -7 59 -10 75 -2 17 -7 55 -11
86 -3 31 -8 67 -10 80 -3 13 -8 49 -11 79 -3 30 -7 57 -9 60 -2 3 -6 29 -10
59 -7 52 -9 68 -20 121 -2 14 -7 39 -9 55 -11 68 -17 99 -21 104 -5 9 -17 91
-13 91 2 0 28 -9 58 -19 61 -22 112 -29 245 -36 238 -12 440 -33 498 -51 49
-15 72 20 76 121 2 33 4 73 5 89 1 34 -8 32 179 41 212 10 233 11 372 30 17 2
52 7 80 11 27 3 59 10 71 15 12 4 24 6 27 3 2 -3 24 0 48 5 24 5 59 13 78 16
19 3 37 8 40 10 4 2 24 6 46 9 22 4 65 13 95 21 30 8 58 15 63 15 4 0 7 -32 7
-70 l0 -70 180 1 180 2 0 121 0 121 78 28 c42 16 100 38 127 50 28 11 73 23
102 27 l51 6 4 -38 4 -38 -66 -1 c-117 -2 -105 13 -106 -127 l-2 -122 124 1
c88 0 124 4 123 12 -1 7 -1 29 0 49 1 29 4 36 16 32 8 -4 23 0 32 7 13 11 15
11 9 1 -6 -10 6 -13 58 -11 l66 2 0 102 c0 67 -4 105 -13 114 -6 7 -7 12 -2
11 6 -2 35 -2 66 -1 l55 1 2 121 c1 67 3 123 5 125 2 3 50 5 106 6 l101 1 0
48 0 49 108 1 c59 0 119 2 133 3 20 1 25 -2 21 -16 -4 -15 -16 -18 -72 -18
l-68 0 -1 -165 c0 -157 1 -165 20 -165 14 0 19 -7 19 -25 0 -24 -2 -25 -67
-26 -38 -1 -82 0 -100 1 l-32 1 0 -149 -1 -150 121 0 c66 0 123 -3 126 -6 4
-3 5 -32 4 -64 l-2 -58 85 -3 86 -2 0 85 0 86 -39 0 c-44 0 -48 5 -43 61 4 37
6 39 37 39 l33 0 -1 108 -2 107 58 -3 57 -3 0 35 0 36 60 0 60 0 0 148 0 148
74 -3 74 -3 -1 116 c0 93 3 118 15 125 12 7 13 19 7 61 -5 29 -11 80 -14 113
-6 75 -18 188 -31 298 -14 107 -16 102 57 131 l36 14 0 76 c0 53 -4 79 -13 87
-8 7 -12 19 -10 28 3 9 8 48 11 86 10 101 12 116 13 157 1 24 10 45 23 57 18
16 22 34 25 88 4 89 0 100 -41 107 l-33 7 4 52 c9 101 13 140 16 142 2 1 39
13 83 27 l80 24 3 41 c3 40 4 41 48 48 25 3 53 8 62 10 10 1 37 6 62 9 25 3
56 8 70 11 24 5 80 14 130 20 14 2 43 6 65 10 72 11 89 14 130 20 22 3 63 10
90 15 28 5 70 11 95 15 25 3 54 7 65 9 11 2 52 9 90 15 105 17 120 19 120 21
0 0 20 3 45 5 127 12 143 20 154 76 5 23 15 28 88 48 46 13 90 24 98 26 8 2
35 9 60 16 25 7 47 13 50 14 65 16 346 112 365 125 6 4 35 17 66 29 l56 22 1
1054 1 1054 -37 39 c-20 22 -63 68 -94 104 -31 35 -71 80 -90 99 -18 20 -58
64 -88 98 -30 35 -66 75 -80 90 -45 49 -175 193 -193 215 -10 12 -51 57 -90
100 -40 43 -78 87 -85 97 -14 21 -48 26 -54 8 -2 -6 -12 -1 -22 10 -15 16 -16
21 -5 25 49 15 50 15 43 43 -4 16 -7 32 -8 37 0 5 15 10 34 10 41 1 74 18 115
59 38 38 83 57 110 47 24 -9 46 -3 62 18 10 13 17 13 38 4 59 -27 86 -13 357
185 l87 64 -1 874 0 873 -47 20 c-99 42 -252 59 -326 37z m179 -74 c-2 -3 -12
3 -22 13 -16 17 -16 18 5 5 12 -7 20 -15 17 -18z m-721 -426 c-3 -9 -8 -14
-10 -11 -3 3 -2 9 2 15 9 16 15 13 8 -4z m358 -172 c13 -16 12 -17 -3 -4 -10
7 -18 15 -18 17 0 8 8 3 21 -13z m-4541 -309 c0 -8 -19 -13 -24 -6 -3 5 1 9 9
9 8 0 15 -2 15 -3z m5023 -159 c-3 -9 -8 -14 -10 -11 -3 3 -2 9 2 15 9 16 15
13 8 -4z m-5503 1 c0 -2 -8 -10 -17 -17 -16 -13 -17 -12 -4 4 13 16 21 21 21
13z m4625 -14 c-3 -3 -11 0 -18 7 -9 10 -8 11 6 5 10 -3 15 -9 12 -12z m565 8
c0 -5 -5 -10 -11 -10 -5 0 -7 5 -4 10 3 6 8 10 11 10 2 0 4 -4 4 -10z m-480
-154 c0 -2 -7 -7 -16 -10 -8 -3 -12 -2 -9 4 6 10 25 14 25 6z m-4000 -166 c0
-5 -5 -10 -11 -10 -5 0 -7 5 -4 10 3 6 8 10 11 10 2 0 4 -4 4 -10z m3520 0 c0
-5 -2 -10 -4 -10 -3 0 -8 5 -11 10 -3 6 -1 10 4 10 6 0 11 -4 11 -10z m720
-74 c0 -2 -7 -7 -16 -10 -8 -3 -12 -2 -9 4 6 10 25 14 25 6z m-5675 -86 c-3
-5 -12 -10 -18 -10 -7 0 -6 4 3 10 19 12 23 12 15 0z m-252 -75 c-3 -9 -8 -14
-10 -11 -3 3 -2 9 2 15 9 16 15 13 8 -4z m4958 -18 c-10 -9 -11 -8 -5 6 3 10
9 15 12 12 3 -3 0 -11 -7 -18z m1110 -64 c13 -16 12 -17 -3 -4 -10 7 -18 15
-18 17 0 8 8 3 21 -13z m-3736 -83 c3 -6 -1 -7 -9 -4 -18 7 -21 14 -7 14 6 0
13 -4 16 -10z m2455 -24 c0 -2 -8 -10 -17 -17 -16 -13 -17 -12 -4 4 13 16 21
21 21 13z m1425 -36 c3 -6 -1 -7 -9 -4 -18 7 -21 14 -7 14 6 0 13 -4 16 -10z
m-5325 -4 c0 -2 -8 -10 -17 -17 -16 -13 -17 -12 -4 4 13 16 21 21 21 13z
m-634 -18 c3 -4 -1 -5 -10 -4 -8 1 -18 5 -22 8 -3 4 1 5 10 4 8 -1 18 -5 22
-8z m3714 8 c0 -3 -4 -8 -10 -11 -5 -3 -10 -1 -10 4 0 6 5 11 10 11 6 0 10 -2
10 -4z m-2310 -20 c0 -2 -8 -10 -17 -17 -16 -13 -17 -12 -4 4 13 16 21 21 21
13z m2470 -40 c0 -2 -7 -7 -16 -10 -8 -3 -12 -2 -9 4 6 10 25 14 25 6z m1314
-32 c3 -8 2 -12 -4 -9 -6 3 -10 10 -10 16 0 14 7 11 14 -7z m480 0 c3 -8 2
-12 -4 -9 -6 3 -10 10 -10 16 0 14 7 11 14 -7z m-3329 -274 c10 -11 16 -20 13
-20 -3 0 -13 9 -23 20 -10 11 -16 20 -13 20 3 0 13 -9 23 -20z m1693 -125 c-3
-3 -9 2 -12 12 -6 14 -5 15 5 6 7 -7 10 -15 7 -18z m-2283 -3 c-3 -3 -11 0
-18 7 -9 10 -8 11 6 5 10 -3 15 -9 12 -12z m-698 -67 c0 -8 -4 -12 -9 -9 -5 3
-6 10 -3 15 9 13 12 11 12 -6z m261 -10 c-3 -3 -9 2 -12 12 -6 14 -5 15 5 6 7
-7 10 -15 7 -18z m-43 6 c3 -5 2 -12 -3 -15 -5 -3 -9 1 -9 9 0 17 3 19 12 6z
m-275 -77 c0 -8 -19 -13 -24 -6 -3 5 1 9 9 9 8 0 15 -2 15 -3z m445 -84 c3 -6
-1 -7 -9 -4 -18 7 -21 14 -7 14 6 0 13 -4 16 -10z m3280 -47 c20 -27 31 -49
25 -53 -12 -7 -8 -26 26 -144 14 -50 27 -98 29 -106 5 -25 84 -312 96 -347 5
-18 12 -40 13 -50 2 -10 11 -43 20 -74 9 -31 19 -65 21 -75 2 -11 14 -53 25
-94 11 -41 23 -82 25 -90 2 -8 18 -64 34 -125 17 -60 31 -115 31 -120 0 -6
-17 -11 -37 -12 -40 -1 -250 -12 -343 -18 -30 -2 -116 -6 -190 -9 -74 -3 -166
-8 -205 -10 -38 -3 -126 -8 -195 -11 -69 -4 -154 -8 -188 -10 l-64 -4 -48 49
-47 50 -64 -5 c-127 -10 -170 -16 -281 -44 l-113 -28 -85 44 c-85 43 -191 83
-229 86 -32 2 -25 10 40 42 61 30 143 100 170 145 26 41 66 150 88 235 26 102
33 177 35 350 1 152 7 178 34 148 27 -29 113 -89 157 -108 22 -9 49 -21 60
-26 11 -5 61 -18 110 -30 122 -29 289 -30 415 -4 28 6 85 16 115 20 34 5 78
25 94 44 9 10 54 78 101 150 75 117 88 131 109 128 18 -4 32 4 57 32 19 20 51
55 71 77 21 23 41 42 45 43 4 1 23 -20 43 -46z m-4085 -93 c0 -5 -2 -10 -4
-10 -3 0 -8 5 -11 10 -3 6 -1 10 4 10 6 0 11 -4 11 -10z m3440 -96 c0 -8 -19
-13 -24 -6 -3 5 1 9 9 9 8 0 15 -2 15 -3z m-2320 -164 c0 -5 -2 -10 -4 -10 -3
0 -8 5 -11 10 -3 6 -1 10 4 10 6 0 11 -4 11 -10z m798 -165 c-3 -3 -9 2 -12
12 -6 14 -5 15 5 6 7 -7 10 -15 7 -18z m-1443 -155 c3 -5 1 -10 -4 -10 -6 0
-11 5 -11 10 0 6 2 10 4 10 3 0 8 -4 11 -10z m405 -156 c0 -8 -19 -13 -24 -6
-3 5 1 9 9 9 8 0 15 -2 15 -3z m4713 -159 c-3 -9 -8 -14 -10 -11 -3 3 -2 9 2
15 9 16 15 13 8 -4z m-638 -5 c3 -5 1 -10 -4 -10 -6 0 -11 5 -11 10 0 6 2 10
4 10 3 0 8 -4 11 -10z m325 0 c0 -5 -2 -10 -4 -10 -3 0 -8 5 -11 10 -3 6 -1
10 4 10 6 0 11 -4 11 -10z m-2885 -88 c-3 -3 -11 0 -18 7 -9 10 -8 11 6 5 10
-3 15 -9 12 -12z m-2896 -87 c-52 -37 -61 -80 -44 -215 11 -87 12 -111 1 -99
-2 2 -31 58 -64 124 l-62 120 33 28 c17 15 54 43 81 62 47 32 51 33 66 17 16
-16 15 -18 -11 -37z m2392 -72 c13 -16 12 -17 -3 -4 -10 7 -18 15 -18 17 0 8
8 3 21 -13z m3704 -72 c3 -5 2 -12 -3 -15 -5 -3 -9 1 -9 9 0 17 3 19 12 6z
m-2901 -87 c3 -8 2 -12 -4 -9 -6 3 -10 10 -10 16 0 14 7 11 14 -7z m186 -70
c0 -8 -19 -13 -24 -6 -3 5 1 9 9 9 8 0 15 -2 15 -3z m1650 0 c0 -8 -19 -13
-24 -6 -3 5 1 9 9 9 8 0 15 -2 15 -3z m-2440 -58 c0 -2 -8 -10 -17 -17 -16
-13 -17 -12 -4 4 13 16 21 21 21 13z m-2938 -372 l27 -21 -34 -16 c-30 -15
-34 -14 -48 1 -22 25 -97 155 -97 169 0 6 28 -16 63 -51 34 -34 74 -71 89 -82z
m6168 -54 c0 -5 -2 -10 -4 -10 -3 0 -8 5 -11 10 -3 6 -1 10 4 10 6 0 11 -4 11
-10z m-4150 -74 c0 -2 -8 -10 -17 -17 -16 -13 -17 -12 -4 4 13 16 21 21 21 13z
m3950 -6 c0 -5 -2 -10 -4 -10 -3 0 -8 5 -11 10 -3 6 -1 10 4 10 6 0 11 -4 11
-10z m-969 -87 c13 -16 12 -17 -3 -4 -10 7 -18 15 -18 17 0 8 8 3 21 -13z
m-5030 -150 c13 -16 12 -17 -3 -4 -10 7 -18 15 -18 17 0 8 8 3 21 -13z m4476
-48 c0 -8 -4 -12 -9 -9 -5 3 -6 10 -3 15 9 13 12 11 12 -6z m-2116 -32 c13
-16 12 -17 -3 -4 -10 7 -18 15 -18 17 0 8 8 3 21 -13z m1714 -11 c-3 -3 -11 0
-18 7 -9 10 -8 11 6 5 10 -3 15 -9 12 -12z m-3521 -78 c3 -8 2 -12 -4 -9 -6 3
-10 10 -10 16 0 14 7 11 14 -7z m5451 -154 c-3 -5 -12 -10 -18 -10 -7 0 -6 4
3 10 19 12 23 12 15 0z m-1361 -78 c3 -5 -1 -9 -9 -9 -8 0 -12 4 -9 9 3 4 7 8
9 8 2 0 6 -4 9 -8z m392 -77 c-1 -8 -5 -17 -8 -21 -5 -4 -4 16 1 34 3 9 9 -1
7 -13z m317 0 c-3 -9 -8 -14 -10 -11 -3 3 -2 9 2 15 9 16 15 13 8 -4z m-1842
-18 c-10 -9 -11 -8 -5 6 3 10 9 15 12 12 3 -3 0 -11 -7 -18z m-740 -34 c13
-16 12 -17 -3 -4 -17 13 -22 21 -14 21 2 0 10 -8 17 -17z m-3174 -38 c0 -8 -4
-12 -9 -9 -4 3 -8 9 -8 15 0 5 4 9 8 9 5 0 9 -7 9 -15z m3117 -73 c3 -5 -1 -9
-9 -9 -8 0 -12 4 -9 9 3 4 7 8 9 8 2 0 6 -4 9 -8z m1199 -77 c-3 -9 -8 -14
-10 -11 -3 3 -2 9 2 15 9 16 15 13 8 -4z m-1038 -13 c-3 -3 -11 0 -18 7 -9 10
-8 11 6 5 10 -3 15 -9 12 -12z m55 -106 c0 -2 -8 -10 -17 -17 -16 -13 -17 -12
-4 4 13 16 21 21 21 13z m65 -35 c3 -5 2 -12 -3 -15 -5 -3 -9 1 -9 9 0 17 3
19 12 6z m59 -97 c3 -8 2 -12 -4 -9 -6 3 -10 10 -10 16 0 14 7 11 14 -7z m57
-87 c-10 -9 -11 -8 -5 6 3 10 9 15 12 12 3 -3 0 -11 -7 -18z m-2787 -65 c3 -5
-1 -9 -9 -9 -8 0 -12 4 -9 9 3 4 7 8 9 8 2 0 6 -4 9 -8z m3307 -189 c13 -16
12 -17 -3 -4 -10 7 -18 15 -18 17 0 8 8 3 21 -13z m-117 -139 c3 -8 2 -12 -4
-9 -6 3 -10 10 -10 16 0 14 7 11 14 -7z m-4255 -266 c-7 -13 -11 -24 -10 -26
1 -1 -14 -52 -34 -112 -43 -128 -26 -120 -225 -106 -69 4 -156 9 -195 10 l-70
1 0 43 c-1 46 5 53 39 58 29 4 94 15 120 20 11 3 32 7 46 9 35 7 65 13 65 15
0 1 9 3 21 5 36 7 178 64 209 84 40 26 48 26 34 -1z m5019 -53 c-3 -3 -9 2
-12 12 -6 14 -5 15 5 6 7 -7 10 -15 7 -18z m-2988 9 c0 -8 -19 -13 -24 -6 -3
5 1 9 9 9 8 0 15 -2 15 -3z m320 -40 c0 -8 -19 -13 -24 -6 -3 5 1 9 9 9 8 0
15 -2 15 -3z m1970 -198 c0 -2 -7 -7 -16 -10 -8 -3 -12 -2 -9 4 6 10 25 14 25
6z m-546 -1052 c3 -8 2 -12 -4 -9 -6 3 -10 10 -10 16 0 14 7 11 14 -7z m-79
-233 c3 -5 2 -12 -3 -15 -5 -3 -9 1 -9 9 0 17 3 19 12 6z"/>
<path d="M8282 2065 l0 -155 144 0 144 0 0 154 0 155 -97 -1 c-76 0 -102 -4
-118 -16 -18 -16 -19 -16 -6 1 12 16 10 17 -27 17 l-41 0 1 -155z"/>
<path d="M6190 2000 l0 -90 90 0 90 0 0 90 0 90 -90 0 -90 0 0 -90z"/>
</g>
</svg>
